# xmcd
#
# Track frame offsets:
#	150
#	7229
#	27474
#	51110
#	85772
#	103480
#	126517
#	147728
#	173596
#	192287
#	214225
#	231678
#
# Disc length: 3416 seconds
#
# Revision: 14
# Processed by: cddbd v1.5.2PL0 Copyright (c) Steve Scherf et al.
# Submitted via: Jack! The Knife 20 Magnifico
#
DISCID=bd0d560c
DTITLE=Rage - Reflections Of A Shadow
DYEAR=1990
DGENRE=Metal
TTITLE0=Introduction (A Bit More Of Green)
TTITLE1=That's Human Bondage
TTITLE2=True Face In Everyone
TTITLE3=Flowers That Fade In My Hand
TTITLE4=Reflections Of A Shadow
TTITLE5=Can't Get Out
TTITLE6=Waiting For The Moon
TTITLE7=Faith
TTITLE8=Saddle The Wind
TTITLE9=Dust
TTITLE10=Nobody Knows
TTITLE11=Wild Seed
EXTD=Armin Sabol
EXTT0=Peter Wagner
EXTT1=Peter Wagner
EXTT2=Wagner, Schmidt
EXTT3=Wagner, Schmidt
EXTT4=Wagner, Schmidt
EXTT5=Peter Wagner
EXTT6=Wagner, Schmidt
EXTT7=Wagner, Schmidt
EXTT8=Peter Wagner
EXTT9=Peter Wagner
EXTT10=Wagner, Schmidt
EXTT11=Wagner, Schmidt
PLAYORDER=
